<?xml version="1.0" encoding="UTF-8"?>
<svg width="85px" height="9px" viewBox="0 0 85 9" version="1.1" xmlns="http://www.w3.org/2000/svg" xmlns:xlink="http://www.w3.org/1999/xlink">
    <title>编组 26</title>
    <g id="Color-Palette" stroke="none" stroke-width="1" fill="none" fill-rule="evenodd">
        <g id="编组-26">
            <g id="编组-25">
                <path d="M8.232,0.0243889185 L5.088,4.22438892 L8.232,8.43638892 L0,8.43638892 L0,0.0243889185 L2.711,0.0243889185 L2.71199783,2.46551336 C3.4798843,1.43901739 4.08853247,0.625388129 4.53794236,0.0246255689 L8.232,0.0243889185 Z M16.98,0.000388918512 L16.98,4.39238892 C16.98,6.70838892 15.096,8.59238892 12.78,8.59238892 C10.464,8.59238892 8.58,6.70838892 8.58,4.39238892 L8.58,4.39238892 L8.58,0.000388918512 L11.742,0.000388918512 L11.7425893,4.42438892 C11.7425893,4.93722476 12.1286295,5.35989608 12.6259682,5.41766119 L12.7425893,5.42438892 C13.294874,5.42438892 13.7425893,4.97667367 13.7425893,4.42438892 L13.7425893,4.42438892 L13.742,0.000388918512 L16.98,0.000388918512 Z M21.876,8.42438892 C24.852,8.42438892 26.148,5.34038892 24.228,3.92438892 C25.62,2.38838892 24.3,0.0243889185 22.008,0.0243889185 L17.64,0.0243889185 L17.64,0.0243889185 L17.64,8.42438892 L21.876,8.42438892 L21.876,8.42438892 Z M32.64,8.41238892 L32.64,5.58038892 L29.0165126,5.58038892 L29.0165126,5.22038892 L32.64,5.22038892 L32.64,3.20438892 L29.0165126,3.20438892 L29.0165126,2.84438892 L32.64,2.84438892 L32.64,0.0123889185 L25.68,0.0123889185 L25.68,8.41238892 L32.64,8.41238892 Z" id="Kube" fill="#242E42" fill-rule="nonzero"></path>
                <polygon id="路径" fill="#E0992C" points="36.344 8.42838892 36.344 2.42838892 34.64 2.42838892 34.64 8.42838892"></polygon>
                <polygon id="路径备份" fill="#E0992C" points="36.344 1.66720256 36.344 0 34.64 0 34.64 1.66720256"></polygon>
                <path d="M40.592,8.57238892 C41.78,8.57238892 42.5,8.04438892 42.884,7.51638892 L41.888,6.58038892 C41.612,6.97638892 41.192,7.21638892 40.664,7.21638892 C39.74,7.21638892 39.092,6.53238892 39.092,5.52438892 C39.092,4.51638892 39.74,3.84438892 40.664,3.84438892 C41.192,3.84438892 41.612,4.06038892 41.888,4.46838892 L42.884,3.53238892 C42.5,3.00438892 41.78,2.48838892 40.592,2.48838892 C38.816,2.48838892 37.52,3.74838892 37.52,5.52438892 C37.52,7.31238892 38.816,8.57238892 40.592,8.57238892 Z M46.568,8.57238892 C48.488,8.57238892 49.64,7.16838892 49.64,5.52438892 C49.64,3.88038892 48.488,2.48838892 46.568,2.48838892 C44.66,2.48838892 43.508,3.88038892 43.508,5.52438892 C43.508,7.16838892 44.66,8.57238892 46.568,8.57238892 Z M46.568,7.21638892 C45.62,7.21638892 45.092,6.43638892 45.092,5.52438892 C45.092,4.62438892 45.62,3.84438892 46.568,3.84438892 C47.528,3.84438892 48.056,4.62438892 48.056,5.52438892 C48.056,6.43638892 47.528,7.21638892 46.568,7.21638892 Z M52.304,8.42838892 L52.304,4.51638892 C52.568,4.18038892 53.024,3.84438892 53.624,3.84438892 C54.272,3.84438892 54.692,4.12038892 54.692,4.92438892 L54.692,8.42838892 L56.228,8.42838892 L56.228,4.33638892 C56.228,3.20838892 55.616,2.48838892 54.332,2.48838892 C53.396,2.48838892 52.676,2.94438892 52.304,3.37638892 L52.304,2.63238892 L50.78,2.63238892 L50.78,8.42838892 L52.304,8.42838892 Z" id="Icons" fill="#242E42" fill-rule="nonzero"></path>
                <path d="M59.816,8.57238892 C61.424,8.57238892 62.336,7.79238892 62.336,6.72438892 C62.336,4.38438892 58.892,5.10438892 58.892,4.25238892 C58.892,3.92838892 59.252,3.68838892 59.804,3.68838892 C60.512,3.68838892 61.172,4.00038892 61.52,4.36038892 L62.132,3.28038892 C61.556,2.82438892 60.776,2.48838892 59.804,2.48838892 C58.268,2.48838892 57.428,3.34038892 57.428,4.31238892 C57.428,6.59238892 60.86,5.81238892 60.86,6.76038892 C60.86,7.12038892 60.548,7.37238892 59.888,7.37238892 C59.168,7.37238892 58.316,6.97638892 57.884,6.56838892 L57.224,7.67238892 C57.836,8.23638892 58.808,8.57238892 59.816,8.57238892 Z" id="路径" fill="#6B7B95"></path>
            </g>
            <rect id="矩形" fill="#3B747A" x="64.4785372" y="2.46858156" width="19.572455" height="6" rx="1"></rect>
            <path d="M66.6368381,7.05858156 L67.0268381,5.98458156 L68.8208381,5.98458156 L69.2108381,7.05858156 L69.9608381,7.05858156 L68.3228381,2.77458156 L67.5248381,2.77458156 L65.8868381,7.05858156 L66.6368381,7.05858156 Z M68.6108381,5.40858156 L67.2368381,5.40858156 L67.9148381,3.53058156 L67.9388381,3.53058156 L68.6108381,5.40858156 Z M71.0648381,7.05858156 L71.0648381,2.69058156 L70.3808381,2.69058156 L70.3808381,7.05858156 L71.0648381,7.05858156 Z M72.5288381,8.24658156 L72.5288381,6.63258156 C72.7808381,6.96858156 73.0928381,7.14258156 73.4528381,7.14258156 C73.8968381,7.14258156 74.2508381,6.98058156 74.5028381,6.65658156 C74.7368381,6.35658156 74.8568381,5.97858156 74.8568381,5.52258156 C74.8568381,5.04258156 74.7368381,4.65858156 74.4968381,4.35858156 C74.2328381,4.03458156 73.8728381,3.87258156 73.4168381,3.87258156 C73.0088381,3.87258156 72.6968381,4.01058156 72.4808381,4.28658156 L72.4808381,3.95658156 L71.8448381,3.95658156 L71.8448381,8.24658156 L72.5288381,8.24658156 Z M73.2908381,6.59058156 C73.0688381,6.59058156 72.8888381,6.50058156 72.7448381,6.32058156 C72.5828381,6.12258156 72.5048381,5.85858156 72.5048381,5.53458156 L72.5048381,5.48658156 C72.5048381,5.17458156 72.5648381,4.92858156 72.6968381,4.74258156 C72.8408381,4.52658156 73.0448381,4.42458156 73.3148381,4.42458156 C73.6148381,4.42458156 73.8368381,4.53258156 73.9808381,4.74858156 C74.0948381,4.92858156 74.1548381,5.18658156 74.1548381,5.52258156 C74.1548381,5.85858156 74.0888381,6.11658156 73.9628381,6.29658156 C73.8188381,6.48858156 73.5908381,6.59058156 73.2908381,6.59058156 Z M76.1408381,7.05858156 L76.1408381,5.32458156 C76.1408381,5.06058156 76.2008381,4.85058156 76.3268381,4.68258156 C76.4468381,4.51458156 76.6148381,4.43058156 76.8308381,4.43058156 C77.0648381,4.43058156 77.2388381,4.50258156 77.3588381,4.65258156 C77.4608381,4.79058156 77.5148381,4.99458156 77.5148381,5.25858156 L77.5148381,7.05858156 L78.1988381,7.05858156 L78.1988381,5.13858156 C78.1988381,4.72458156 78.1088381,4.41258156 77.9348381,4.20258156 C77.7488381,3.98058156 77.4668381,3.87258156 77.0888381,3.87258156 C76.8908381,3.87258156 76.7168381,3.90858156 76.5668381,3.98658156 C76.3988381,4.07058156 76.2548381,4.19658156 76.1408381,4.37058156 L76.1408381,2.69058156 L75.4568381,2.69058156 L75.4568381,7.05858156 L76.1408381,7.05858156 Z M79.8488381,7.14258156 C80.1188381,7.14258156 80.3528381,7.09458156 80.5508381,7.00458156 C80.7248381,6.92058156 80.8748381,6.80658156 80.9948381,6.65058156 L80.9948381,7.05858156 L81.6308381,7.05858156 L81.6308381,5.07858156 C81.6308381,4.70058156 81.5348381,4.41258156 81.3428381,4.21458156 C81.1268381,3.98658156 80.7848381,3.87258156 80.3288381,3.87258156 C79.9328381,3.87258156 79.6208381,3.93858156 79.3928381,4.08258156 C79.1228381,4.23858156 78.9548381,4.49058156 78.8888381,4.83258156 L79.5668381,4.88658156 C79.6028381,4.72458156 79.6928381,4.60458156 79.8248381,4.52658156 C79.9388381,4.45458156 80.0888381,4.42458156 80.2808381,4.42458156 C80.7248381,4.42458156 80.9468381,4.62258156 80.9468381,5.03058156 L80.9468381,5.15058156 L80.2688381,5.16858156 C79.8128381,5.18058156 79.4588381,5.27658156 79.2068381,5.45658156 C78.9308381,5.64258156 78.7988381,5.91258156 78.7988381,6.26058156 C78.7988381,6.51858156 78.8948381,6.72858156 79.0868381,6.89658156 C79.2728381,7.05858156 79.5248381,7.14258156 79.8488381,7.14258156 Z M80.0048381,6.62058156 C79.8548381,6.62058156 79.7348381,6.57858156 79.6388381,6.50658156 C79.5428381,6.43458156 79.5008381,6.34458156 79.5008381,6.23658156 C79.5008381,5.86458156 79.7708381,5.67258156 80.3168381,5.66058156 L80.9468381,5.64258156 L80.9468381,5.79858156 C80.9468381,6.03858156 80.8508381,6.23658156 80.6708381,6.39258156 C80.4908381,6.54258156 80.2688381,6.62058156 80.0048381,6.62058156 Z" id="Alpha" fill="#FFFFFF" fill-rule="nonzero"></path>
        </g>
    </g>
</svg>