<?xml version="1.0" encoding="UTF-8"?>
<svg width="24px" height="24px" viewBox="0 0 24 24" version="1.1" xmlns="http://www.w3.org/2000/svg" xmlns:xlink="http://www.w3.org/1999/xlink">
    <title>Glyph/001.Operation/001.Refresh</title>
    <g id="Glyph/001.Operation/001.Refresh" stroke="none" stroke-width="1" fill="none" fill-rule="evenodd">
        <path d="M14.9495775,4.62605628 L14.2065986,6.48350353 C13.5244058,6.21037919 12.779749,6.06013122 12,6.06013122 C8.71950106,6.06013122 6.06013122,8.71950106 6.06013122,12 C6.06013122,15.2804989 8.71950106,17.9398688 12,17.9398688 C15.081022,17.9398688 17.6141561,15.594082 17.9108281,12.5910828 L19.9010499,12.790105 C19.5044861,16.8042374 16.118426,19.9398688 12,19.9398688 C7.61493156,19.9398688 4.06013122,16.3850684 4.06013122,12 C4.06013122,7.61493156 7.61493156,4.06013122 12,4.06013122 C13.0422966,4.06013122 14.037685,4.26096885 14.9495775,4.62605628 L14.9495775,4.62605628 Z" id="Shape" fill="#CCD3DB"></path>
        <polygon id="Shape" fill="#242E42" points="15.9893091 2.0370814 18.1381264 7.09937762 13.0758302 9.24819488"></polygon>
    </g>
</svg>